<?xml version="1.0" encoding="utf-8" standalone="no"?>
<!DOCTYPE svg PUBLIC "-//W3C//DTD SVG 1.1//EN"
  "http://www.w3.org/Graphics/SVG/1.1/DTD/svg11.dtd">
<svg xmlns:xlink="http://www.w3.org/1999/xlink" width="864pt" height="432pt" viewBox="0 0 864 432" xmlns="http://www.w3.org/2000/svg" version="1.1">
 <metadata>
  <rdf:RDF xmlns:dc="http://purl.org/dc/elements/1.1/" xmlns:cc="http://creativecommons.org/ns#" xmlns:rdf="http://www.w3.org/1999/02/22-rdf-syntax-ns#">
   <cc:Work>
    <dc:type rdf:resource="http://purl.org/dc/dcmitype/StillImage"/>
    <dc:date>2024-02-18T11:13:32.928795</dc:date>
    <dc:format>image/svg+xml</dc:format>
    <dc:creator>
     <cc:Agent>
      <dc:title>Matplotlib v3.8.2, https://matplotlib.org/</dc:title>
     </cc:Agent>
    </dc:creator>
   </cc:Work>
  </rdf:RDF>
 </metadata>
 <defs>
  <style type="text/css">*{stroke-linejoin: round; stroke-linecap: butt}</style>
 </defs>
 <g id="figure_1">
  <g id="patch_1">
   <path d="M 0 432 
L 864 432 
L 864 0 
L 0 0 
z
" style="fill: #ffffff"/>
  </g>
  <g id="axes_1">
   <g id="patch_2">
    <path d="M 108 384.48 
L 777.6 384.48 
L 777.6 51.84 
L 108 51.84 
z
" style="fill: #ffffff"/>
   </g>
   <g id="matplotlib.axis_1">
    <g id="xtick_1">
     <g id="line2d_1">
      <path d="M 136.750139 384.48 
L 136.750139 51.84 
" clip-path="url(#pafe1291578)" style="fill: none; stroke: #cccccc; stroke-width: 0.8; stroke-linecap: round"/>
     </g>
     <g id="text_1">
      <!-- 2022-01 -->
      <g style="fill: #262626" transform="translate(114.732951 400.069375) scale(0.12 -0.12)">
       <defs>
        <path id="ArialMT-32" d="M 3222 541 
L 3222 0 
L 194 0 
Q 188 203 259 391 
Q 375 700 629 1000 
Q 884 1300 1366 1694 
Q 2113 2306 2375 2664 
Q 2638 3022 2638 3341 
Q 2638 3675 2398 3904 
Q 2159 4134 1775 4134 
Q 1369 4134 1125 3890 
Q 881 3647 878 3216 
L 300 3275 
Q 359 3922 746 4261 
Q 1134 4600 1788 4600 
Q 2447 4600 2831 4234 
Q 3216 3869 3216 3328 
Q 3216 3053 3103 2787 
Q 2991 2522 2730 2228 
Q 2469 1934 1863 1422 
Q 1356 997 1212 845 
Q 1069 694 975 541 
L 3222 541 
z
" transform="scale(0.015625)"/>
        <path id="ArialMT-30" d="M 266 2259 
Q 266 3072 433 3567 
Q 600 4063 929 4331 
Q 1259 4600 1759 4600 
Q 2128 4600 2406 4451 
Q 2684 4303 2865 4023 
Q 3047 3744 3150 3342 
Q 3253 2941 3253 2259 
Q 3253 1453 3087 958 
Q 2922 463 2592 192 
Q 2263 -78 1759 -78 
Q 1097 -78 719 397 
Q 266 969 266 2259 
z
M 844 2259 
Q 844 1131 1108 757 
Q 1372 384 1759 384 
Q 2147 384 2411 759 
Q 2675 1134 2675 2259 
Q 2675 3391 2411 3762 
Q 2147 4134 1753 4134 
Q 1366 4134 1134 3806 
Q 844 3388 844 2259 
z
" transform="scale(0.015625)"/>
        <path id="ArialMT-2d" d="M 203 1375 
L 203 1941 
L 1931 1941 
L 1931 1375 
L 203 1375 
z
" transform="scale(0.015625)"/>
        <path id="ArialMT-31" d="M 2384 0 
L 1822 0 
L 1822 3584 
Q 1619 3391 1289 3197 
Q 959 3003 697 2906 
L 697 3450 
Q 1169 3672 1522 3987 
Q 1875 4303 2022 4600 
L 2384 4600 
L 2384 0 
z
" transform="scale(0.015625)"/>
       </defs>
       <use xlink:href="#ArialMT-32"/>
       <use xlink:href="#ArialMT-30" x="55.615234"/>
       <use xlink:href="#ArialMT-32" x="111.230469"/>
       <use xlink:href="#ArialMT-32" x="166.845703"/>
       <use xlink:href="#ArialMT-2d" x="222.460938"/>
       <use xlink:href="#ArialMT-30" x="255.761719"/>
       <use xlink:href="#ArialMT-31" x="311.376953"/>
      </g>
     </g>
    </g>
    <g id="xtick_2">
     <g id="line2d_2">
      <path d="M 212.630269 384.48 
L 212.630269 51.84 
" clip-path="url(#pafe1291578)" style="fill: none; stroke: #cccccc; stroke-width: 0.8; stroke-linecap: round"/>
     </g>
     <g id="text_2">
      <!-- 2022-04 -->
      <g style="fill: #262626" transform="translate(190.613082 400.069375) scale(0.12 -0.12)">
       <defs>
        <path id="ArialMT-34" d="M 2069 0 
L 2069 1097 
L 81 1097 
L 81 1613 
L 2172 4581 
L 2631 4581 
L 2631 1613 
L 3250 1613 
L 3250 1097 
L 2631 1097 
L 2631 0 
L 2069 0 
z
M 2069 1613 
L 2069 3678 
L 634 1613 
L 2069 1613 
z
" transform="scale(0.015625)"/>
       </defs>
       <use xlink:href="#ArialMT-32"/>
       <use xlink:href="#ArialMT-30" x="55.615234"/>
       <use xlink:href="#ArialMT-32" x="111.230469"/>
       <use xlink:href="#ArialMT-32" x="166.845703"/>
       <use xlink:href="#ArialMT-2d" x="222.460938"/>
       <use xlink:href="#ArialMT-30" x="255.761719"/>
       <use xlink:href="#ArialMT-34" x="311.376953"/>
      </g>
     </g>
    </g>
    <g id="xtick_3">
     <g id="line2d_3">
      <path d="M 289.353513 384.48 
L 289.353513 51.84 
" clip-path="url(#pafe1291578)" style="fill: none; stroke: #cccccc; stroke-width: 0.8; stroke-linecap: round"/>
     </g>
     <g id="text_3">
      <!-- 2022-07 -->
      <g style="fill: #262626" transform="translate(267.336325 400.069375) scale(0.12 -0.12)">
       <defs>
        <path id="ArialMT-37" d="M 303 3981 
L 303 4522 
L 3269 4522 
L 3269 4084 
Q 2831 3619 2401 2847 
Q 1972 2075 1738 1259 
Q 1569 684 1522 0 
L 944 0 
Q 953 541 1156 1306 
Q 1359 2072 1739 2783 
Q 2119 3494 2547 3981 
L 303 3981 
z
" transform="scale(0.015625)"/>
       </defs>
       <use xlink:href="#ArialMT-32"/>
       <use xlink:href="#ArialMT-30" x="55.615234"/>
       <use xlink:href="#ArialMT-32" x="111.230469"/>
       <use xlink:href="#ArialMT-32" x="166.845703"/>
       <use xlink:href="#ArialMT-2d" x="222.460938"/>
       <use xlink:href="#ArialMT-30" x="255.761719"/>
       <use xlink:href="#ArialMT-37" x="311.376953"/>
      </g>
     </g>
    </g>
    <g id="xtick_4">
     <g id="line2d_4">
      <path d="M 366.919869 384.48 
L 366.919869 51.84 
" clip-path="url(#pafe1291578)" style="fill: none; stroke: #cccccc; stroke-width: 0.8; stroke-linecap: round"/>
     </g>
     <g id="text_4">
      <!-- 2022-10 -->
      <g style="fill: #262626" transform="translate(344.902682 400.069375) scale(0.12 -0.12)">
       <use xlink:href="#ArialMT-32"/>
       <use xlink:href="#ArialMT-30" x="55.615234"/>
       <use xlink:href="#ArialMT-32" x="111.230469"/>
       <use xlink:href="#ArialMT-32" x="166.845703"/>
       <use xlink:href="#ArialMT-2d" x="222.460938"/>
       <use xlink:href="#ArialMT-31" x="255.761719"/>
       <use xlink:href="#ArialMT-30" x="311.376953"/>
      </g>
     </g>
    </g>
    <g id="xtick_5">
     <g id="line2d_5">
      <path d="M 444.486225 384.48 
L 444.486225 51.84 
" clip-path="url(#pafe1291578)" style="fill: none; stroke: #cccccc; stroke-width: 0.8; stroke-linecap: round"/>
     </g>
     <g id="text_5">
      <!-- 2023-01 -->
      <g style="fill: #262626" transform="translate(422.469038 400.069375) scale(0.12 -0.12)">
       <defs>
        <path id="ArialMT-33" d="M 269 1209 
L 831 1284 
Q 928 806 1161 595 
Q 1394 384 1728 384 
Q 2125 384 2398 659 
Q 2672 934 2672 1341 
Q 2672 1728 2419 1979 
Q 2166 2231 1775 2231 
Q 1616 2231 1378 2169 
L 1441 2663 
Q 1497 2656 1531 2656 
Q 1891 2656 2178 2843 
Q 2466 3031 2466 3422 
Q 2466 3731 2256 3934 
Q 2047 4138 1716 4138 
Q 1388 4138 1169 3931 
Q 950 3725 888 3313 
L 325 3413 
Q 428 3978 793 4289 
Q 1159 4600 1703 4600 
Q 2078 4600 2393 4439 
Q 2709 4278 2876 4000 
Q 3044 3722 3044 3409 
Q 3044 3113 2884 2869 
Q 2725 2625 2413 2481 
Q 2819 2388 3044 2092 
Q 3269 1797 3269 1353 
Q 3269 753 2831 336 
Q 2394 -81 1725 -81 
Q 1122 -81 723 278 
Q 325 638 269 1209 
z
" transform="scale(0.015625)"/>
       </defs>
       <use xlink:href="#ArialMT-32"/>
       <use xlink:href="#ArialMT-30" x="55.615234"/>
       <use xlink:href="#ArialMT-32" x="111.230469"/>
       <use xlink:href="#ArialMT-33" x="166.845703"/>
       <use xlink:href="#ArialMT-2d" x="222.460938"/>
       <use xlink:href="#ArialMT-30" x="255.761719"/>
       <use xlink:href="#ArialMT-31" x="311.376953"/>
      </g>
     </g>
    </g>
    <g id="xtick_6">
     <g id="line2d_6">
      <path d="M 520.366356 384.48 
L 520.366356 51.84 
" clip-path="url(#pafe1291578)" style="fill: none; stroke: #cccccc; stroke-width: 0.8; stroke-linecap: round"/>
     </g>
     <g id="text_6">
      <!-- 2023-04 -->
      <g style="fill: #262626" transform="translate(498.349169 400.069375) scale(0.12 -0.12)">
       <use xlink:href="#ArialMT-32"/>
       <use xlink:href="#ArialMT-30" x="55.615234"/>
       <use xlink:href="#ArialMT-32" x="111.230469"/>
       <use xlink:href="#ArialMT-33" x="166.845703"/>
       <use xlink:href="#ArialMT-2d" x="222.460938"/>
       <use xlink:href="#ArialMT-30" x="255.761719"/>
       <use xlink:href="#ArialMT-34" x="311.376953"/>
      </g>
     </g>
    </g>
    <g id="xtick_7">
     <g id="line2d_7">
      <path d="M 597.0896 384.48 
L 597.0896 51.84 
" clip-path="url(#pafe1291578)" style="fill: none; stroke: #cccccc; stroke-width: 0.8; stroke-linecap: round"/>
     </g>
     <g id="text_7">
      <!-- 2023-07 -->
      <g style="fill: #262626" transform="translate(575.072412 400.069375) scale(0.12 -0.12)">
       <use xlink:href="#ArialMT-32"/>
       <use xlink:href="#ArialMT-30" x="55.615234"/>
       <use xlink:href="#ArialMT-32" x="111.230469"/>
       <use xlink:href="#ArialMT-33" x="166.845703"/>
       <use xlink:href="#ArialMT-2d" x="222.460938"/>
       <use xlink:href="#ArialMT-30" x="255.761719"/>
       <use xlink:href="#ArialMT-37" x="311.376953"/>
      </g>
     </g>
    </g>
    <g id="xtick_8">
     <g id="line2d_8">
      <path d="M 674.655956 384.48 
L 674.655956 51.84 
" clip-path="url(#pafe1291578)" style="fill: none; stroke: #cccccc; stroke-width: 0.8; stroke-linecap: round"/>
     </g>
     <g id="text_8">
      <!-- 2023-10 -->
      <g style="fill: #262626" transform="translate(652.638768 400.069375) scale(0.12 -0.12)">
       <use xlink:href="#ArialMT-32"/>
       <use xlink:href="#ArialMT-30" x="55.615234"/>
       <use xlink:href="#ArialMT-32" x="111.230469"/>
       <use xlink:href="#ArialMT-33" x="166.845703"/>
       <use xlink:href="#ArialMT-2d" x="222.460938"/>
       <use xlink:href="#ArialMT-31" x="255.761719"/>
       <use xlink:href="#ArialMT-30" x="311.376953"/>
      </g>
     </g>
    </g>
    <g id="xtick_9">
     <g id="line2d_9">
      <path d="M 752.222312 384.48 
L 752.222312 51.84 
" clip-path="url(#pafe1291578)" style="fill: none; stroke: #cccccc; stroke-width: 0.8; stroke-linecap: round"/>
     </g>
     <g id="text_9">
      <!-- 2024-01 -->
      <g style="fill: #262626" transform="translate(730.205124 400.069375) scale(0.12 -0.12)">
       <use xlink:href="#ArialMT-32"/>
       <use xlink:href="#ArialMT-30" x="55.615234"/>
       <use xlink:href="#ArialMT-32" x="111.230469"/>
       <use xlink:href="#ArialMT-34" x="166.845703"/>
       <use xlink:href="#ArialMT-2d" x="222.460938"/>
       <use xlink:href="#ArialMT-30" x="255.761719"/>
       <use xlink:href="#ArialMT-31" x="311.376953"/>
      </g>
     </g>
    </g>
   </g>
   <g id="matplotlib.axis_2">
    <g id="ytick_1">
     <g id="line2d_10">
      <path d="M 108 369.36 
L 777.6 369.36 
" clip-path="url(#pafe1291578)" style="fill: none; stroke: #cccccc; stroke-width: 0.8; stroke-linecap: round"/>
     </g>
     <g id="text_10">
      <!-- 0 -->
      <g style="fill: #262626" transform="translate(94.326875 373.654688) scale(0.12 -0.12)">
       <use xlink:href="#ArialMT-30"/>
      </g>
     </g>
    </g>
    <g id="ytick_2">
     <g id="line2d_11">
      <path d="M 108 308.88 
L 777.6 308.88 
" clip-path="url(#pafe1291578)" style="fill: none; stroke: #cccccc; stroke-width: 0.8; stroke-linecap: round"/>
     </g>
     <g id="text_11">
      <!-- 1 -->
      <g style="fill: #262626" transform="translate(94.326875 313.174688) scale(0.12 -0.12)">
       <use xlink:href="#ArialMT-31"/>
      </g>
     </g>
    </g>
    <g id="ytick_3">
     <g id="line2d_12">
      <path d="M 108 248.4 
L 777.6 248.4 
" clip-path="url(#pafe1291578)" style="fill: none; stroke: #cccccc; stroke-width: 0.8; stroke-linecap: round"/>
     </g>
     <g id="text_12">
      <!-- 2 -->
      <g style="fill: #262626" transform="translate(94.326875 252.694687) scale(0.12 -0.12)">
       <use xlink:href="#ArialMT-32"/>
      </g>
     </g>
    </g>
    <g id="ytick_4">
     <g id="line2d_13">
      <path d="M 108 187.92 
L 777.6 187.92 
" clip-path="url(#pafe1291578)" style="fill: none; stroke: #cccccc; stroke-width: 0.8; stroke-linecap: round"/>
     </g>
     <g id="text_13">
      <!-- 3 -->
      <g style="fill: #262626" transform="translate(94.326875 192.214687) scale(0.12 -0.12)">
       <use xlink:href="#ArialMT-33"/>
      </g>
     </g>
    </g>
    <g id="ytick_5">
     <g id="line2d_14">
      <path d="M 108 127.44 
L 777.6 127.44 
" clip-path="url(#pafe1291578)" style="fill: none; stroke: #cccccc; stroke-width: 0.8; stroke-linecap: round"/>
     </g>
     <g id="text_14">
      <!-- 4 -->
      <g style="fill: #262626" transform="translate(94.326875 131.734687) scale(0.12 -0.12)">
       <use xlink:href="#ArialMT-34"/>
      </g>
     </g>
    </g>
    <g id="ytick_6">
     <g id="line2d_15">
      <path d="M 108 66.96 
L 777.6 66.96 
" clip-path="url(#pafe1291578)" style="fill: none; stroke: #cccccc; stroke-width: 0.8; stroke-linecap: round"/>
     </g>
     <g id="text_15">
      <!-- 5 -->
      <g style="fill: #262626" transform="translate(94.326875 71.254687) scale(0.12 -0.12)">
       <defs>
        <path id="ArialMT-35" d="M 266 1200 
L 856 1250 
Q 922 819 1161 601 
Q 1400 384 1738 384 
Q 2144 384 2425 690 
Q 2706 997 2706 1503 
Q 2706 1984 2436 2262 
Q 2166 2541 1728 2541 
Q 1456 2541 1237 2417 
Q 1019 2294 894 2097 
L 366 2166 
L 809 4519 
L 3088 4519 
L 3088 3981 
L 1259 3981 
L 1013 2750 
Q 1425 3038 1878 3038 
Q 2478 3038 2890 2622 
Q 3303 2206 3303 1553 
Q 3303 931 2941 478 
Q 2500 -78 1738 -78 
Q 1113 -78 717 272 
Q 322 622 266 1200 
z
" transform="scale(0.015625)"/>
       </defs>
       <use xlink:href="#ArialMT-35"/>
      </g>
     </g>
    </g>
    <g id="text_16">
     <!-- Quantity -->
     <g style="fill: #262626" transform="translate(87.380313 246.547187) rotate(-90) scale(0.14 -0.14)">
      <defs>
       <path id="Arial-BoldMT-51" d="M 4153 581 
Q 4494 338 4894 194 
L 4553 -459 
Q 4344 -397 4144 -288 
Q 4100 -266 3528 119 
Q 3078 -78 2531 -78 
Q 1475 -78 876 544 
Q 278 1166 278 2291 
Q 278 3413 878 4036 
Q 1478 4659 2506 4659 
Q 3525 4659 4122 4036 
Q 4719 3413 4719 2291 
Q 4719 1697 4553 1247 
Q 4428 903 4153 581 
z
M 3409 1103 
Q 3588 1313 3677 1609 
Q 3766 1906 3766 2291 
Q 3766 3084 3416 3476 
Q 3066 3869 2500 3869 
Q 1934 3869 1582 3475 
Q 1231 3081 1231 2291 
Q 1231 1488 1582 1089 
Q 1934 691 2472 691 
Q 2672 691 2850 756 
Q 2569 941 2278 1044 
L 2538 1572 
Q 2994 1416 3409 1103 
z
" transform="scale(0.015625)"/>
       <path id="Arial-BoldMT-75" d="M 2644 0 
L 2644 497 
Q 2463 231 2167 78 
Q 1872 -75 1544 -75 
Q 1209 -75 943 72 
Q 678 219 559 484 
Q 441 750 441 1219 
L 441 3319 
L 1319 3319 
L 1319 1794 
Q 1319 1094 1367 936 
Q 1416 778 1544 686 
Q 1672 594 1869 594 
Q 2094 594 2272 717 
Q 2450 841 2515 1023 
Q 2581 1206 2581 1919 
L 2581 3319 
L 3459 3319 
L 3459 0 
L 2644 0 
z
" transform="scale(0.015625)"/>
       <path id="Arial-BoldMT-61" d="M 1116 2306 
L 319 2450 
Q 453 2931 781 3162 
Q 1109 3394 1756 3394 
Q 2344 3394 2631 3255 
Q 2919 3116 3036 2902 
Q 3153 2688 3153 2116 
L 3144 1091 
Q 3144 653 3186 445 
Q 3228 238 3344 0 
L 2475 0 
Q 2441 88 2391 259 
Q 2369 338 2359 363 
Q 2134 144 1878 34 
Q 1622 -75 1331 -75 
Q 819 -75 523 203 
Q 228 481 228 906 
Q 228 1188 362 1408 
Q 497 1628 739 1745 
Q 981 1863 1438 1950 
Q 2053 2066 2291 2166 
L 2291 2253 
Q 2291 2506 2166 2614 
Q 2041 2722 1694 2722 
Q 1459 2722 1328 2630 
Q 1197 2538 1116 2306 
z
M 2291 1594 
Q 2122 1538 1756 1459 
Q 1391 1381 1278 1306 
Q 1106 1184 1106 997 
Q 1106 813 1243 678 
Q 1381 544 1594 544 
Q 1831 544 2047 700 
Q 2206 819 2256 991 
Q 2291 1103 2291 1419 
L 2291 1594 
z
" transform="scale(0.015625)"/>
       <path id="Arial-BoldMT-6e" d="M 3478 0 
L 2600 0 
L 2600 1694 
Q 2600 2231 2544 2389 
Q 2488 2547 2361 2634 
Q 2234 2722 2056 2722 
Q 1828 2722 1647 2597 
Q 1466 2472 1398 2265 
Q 1331 2059 1331 1503 
L 1331 0 
L 453 0 
L 453 3319 
L 1269 3319 
L 1269 2831 
Q 1703 3394 2363 3394 
Q 2653 3394 2893 3289 
Q 3134 3184 3257 3021 
Q 3381 2859 3429 2653 
Q 3478 2447 3478 2063 
L 3478 0 
z
" transform="scale(0.015625)"/>
       <path id="Arial-BoldMT-74" d="M 1981 3319 
L 1981 2619 
L 1381 2619 
L 1381 1281 
Q 1381 875 1398 808 
Q 1416 741 1477 697 
Q 1538 653 1625 653 
Q 1747 653 1978 738 
L 2053 56 
Q 1747 -75 1359 -75 
Q 1122 -75 931 4 
Q 741 84 652 211 
Q 563 338 528 553 
Q 500 706 500 1172 
L 500 2619 
L 97 2619 
L 97 3319 
L 500 3319 
L 500 3978 
L 1381 4491 
L 1381 3319 
L 1981 3319 
z
" transform="scale(0.015625)"/>
       <path id="Arial-BoldMT-69" d="M 459 3769 
L 459 4581 
L 1338 4581 
L 1338 3769 
L 459 3769 
z
M 459 0 
L 459 3319 
L 1338 3319 
L 1338 0 
L 459 0 
z
" transform="scale(0.015625)"/>
       <path id="Arial-BoldMT-79" d="M 44 3319 
L 978 3319 
L 1772 963 
L 2547 3319 
L 3456 3319 
L 2284 125 
L 2075 -453 
Q 1959 -744 1854 -897 
Q 1750 -1050 1614 -1145 
Q 1478 -1241 1279 -1294 
Q 1081 -1347 831 -1347 
Q 578 -1347 334 -1294 
L 256 -606 
Q 463 -647 628 -647 
Q 934 -647 1081 -467 
Q 1228 -288 1306 -9 
L 44 3319 
z
" transform="scale(0.015625)"/>
      </defs>
      <use xlink:href="#Arial-BoldMT-51"/>
      <use xlink:href="#Arial-BoldMT-75" x="77.783203"/>
      <use xlink:href="#Arial-BoldMT-61" x="138.867188"/>
      <use xlink:href="#Arial-BoldMT-6e" x="194.482422"/>
      <use xlink:href="#Arial-BoldMT-74" x="255.566406"/>
      <use xlink:href="#Arial-BoldMT-69" x="288.867188"/>
      <use xlink:href="#Arial-BoldMT-74" x="316.650391"/>
      <use xlink:href="#Arial-BoldMT-79" x="349.951172"/>
     </g>
    </g>
   </g>
   <g id="PolyCollection_1"/>
   <g id="line2d_16">
    <path d="M 138.436364 308.88 
L 139.279476 369.36 
L 140.122589 369.36 
L 140.965701 248.4 
L 142.651926 369.36 
L 144.338152 369.36 
L 145.181264 127.44 
L 146.024377 308.88 
L 146.867489 248.4 
L 147.710602 308.88 
L 148.553714 308.88 
L 149.396827 187.92 
L 150.23994 369.36 
L 151.083052 308.88 
L 151.926165 369.36 
L 154.455502 369.36 
L 156.141728 248.4 
L 156.98484 308.88 
L 157.827953 66.96 
L 159.514178 308.88 
L 160.35729 248.4 
L 163.729741 248.4 
L 165.415966 369.36 
L 166.259078 369.36 
L 167.102191 187.92 
L 167.945303 187.92 
L 168.788416 308.88 
L 169.631529 369.36 
L 170.474641 308.88 
L 171.317754 369.36 
L 172.160866 308.88 
L 173.003979 308.88 
L 173.847091 369.36 
L 175.533317 369.36 
L 176.376429 308.88 
L 177.219542 369.36 
L 178.062654 248.4 
L 178.905767 369.36 
L 179.748879 308.88 
L 180.591992 369.36 
L 183.964442 369.36 
L 184.807555 308.88 
L 187.336892 308.88 
L 188.180005 369.36 
L 189.023118 369.36 
L 189.86623 308.88 
L 192.395568 308.88 
L 193.23868 369.36 
L 194.924906 248.4 
L 195.768018 248.4 
L 196.611131 369.36 
L 197.454243 308.88 
L 198.297356 187.92 
L 199.140468 308.88 
L 200.826694 308.88 
L 201.669806 369.36 
L 202.512919 369.36 
L 203.356031 248.4 
L 204.199144 248.4 
L 205.042256 369.36 
L 205.885369 308.88 
L 206.728481 187.92 
L 207.571594 308.88 
L 208.414707 369.36 
L 209.257819 308.88 
L 210.100932 308.88 
L 210.944044 369.36 
L 212.630269 248.4 
L 214.316495 369.36 
L 215.159607 308.88 
L 218.532057 308.88 
L 219.37517 369.36 
L 220.218283 187.92 
L 221.061395 369.36 
L 221.904508 369.36 
L 222.74762 308.88 
L 223.590733 308.88 
L 224.433845 369.36 
L 226.963183 369.36 
L 227.806296 308.88 
L 228.649408 369.36 
L 229.492521 369.36 
L 230.335633 248.4 
L 231.178746 369.36 
L 232.021858 248.4 
L 232.864971 308.88 
L 233.708084 187.92 
L 234.551196 308.88 
L 235.394309 248.4 
L 237.080534 248.4 
L 237.923646 308.88 
L 239.609872 308.88 
L 240.452984 187.92 
L 241.296097 308.88 
L 242.139209 248.4 
L 242.982322 369.36 
L 245.51166 369.36 
L 247.197885 248.4 
L 248.88411 369.36 
L 250.570335 248.4 
L 251.413447 308.88 
L 253.099673 308.88 
L 253.942785 248.4 
L 254.785898 369.36 
L 255.62901 369.36 
L 256.472123 248.4 
L 257.315235 308.88 
L 259.001461 308.88 
L 259.844573 369.36 
L 260.687686 369.36 
L 261.530798 308.88 
L 262.373911 369.36 
L 263.217023 369.36 
L 264.903249 248.4 
L 265.746361 369.36 
L 266.589474 308.88 
L 267.432586 369.36 
L 269.118811 369.36 
L 269.961924 187.92 
L 270.805037 369.36 
L 271.648149 308.88 
L 272.491262 369.36 
L 273.334374 308.88 
L 275.020599 308.88 
L 275.863712 187.92 
L 276.706824 308.88 
L 277.549937 248.4 
L 278.39305 248.4 
L 280.079275 369.36 
L 280.922387 308.88 
L 281.7655 308.88 
L 282.608612 369.36 
L 283.451725 308.88 
L 284.294838 369.36 
L 286.824175 369.36 
L 287.667288 187.92 
L 288.5104 308.88 
L 289.353513 369.36 
L 290.196626 248.4 
L 291.039738 369.36 
L 291.882851 127.44 
L 293.569076 369.36 
L 294.412188 308.88 
L 295.255301 369.36 
L 297.784639 369.36 
L 298.627751 308.88 
L 299.470864 308.88 
L 300.313976 248.4 
L 301.157089 369.36 
L 303.686427 369.36 
L 304.529539 308.88 
L 305.372652 308.88 
L 306.215764 187.92 
L 307.058877 369.36 
L 308.745102 248.4 
L 309.588215 369.36 
L 310.431327 308.88 
L 312.117552 308.88 
L 312.960665 369.36 
L 315.490003 369.36 
L 316.333115 308.88 
L 318.862453 308.88 
L 319.705565 369.36 
L 320.548678 369.36 
L 322.234903 248.4 
L 323.921128 248.4 
L 324.764241 369.36 
L 326.450466 369.36 
L 327.293578 308.88 
L 328.136691 308.88 
L 328.979804 248.4 
L 329.822916 369.36 
L 333.195366 369.36 
L 334.881592 248.4 
L 335.724704 369.36 
L 336.567817 308.88 
L 337.410929 369.36 
L 339.097154 369.36 
L 339.940267 308.88 
L 340.78338 369.36 
L 341.626492 248.4 
L 342.469605 369.36 
L 344.15583 369.36 
L 344.998942 308.88 
L 345.842055 369.36 
L 346.685167 369.36 
L 347.52828 308.88 
L 348.371393 369.36 
L 349.214505 308.88 
L 350.057618 369.36 
L 350.90073 187.92 
L 351.743843 369.36 
L 352.586955 187.92 
L 353.430068 369.36 
L 354.273181 248.4 
L 355.116293 248.4 
L 356.802518 369.36 
L 358.488743 248.4 
L 359.331856 308.88 
L 360.174969 308.88 
L 361.018081 248.4 
L 361.861194 308.88 
L 362.704306 308.88 
L 363.547419 248.4 
L 365.233644 248.4 
L 366.076756 308.88 
L 366.919869 308.88 
L 367.762982 369.36 
L 368.606094 248.4 
L 369.449207 369.36 
L 370.292319 308.88 
L 371.135432 308.88 
L 371.978544 369.36 
L 372.821657 369.36 
L 373.66477 308.88 
L 374.507882 369.36 
L 375.350995 308.88 
L 376.194107 369.36 
L 377.03722 308.88 
L 377.880332 369.36 
L 379.566558 369.36 
L 380.40967 308.88 
L 382.939008 308.88 
L 383.78212 369.36 
L 384.625233 308.88 
L 385.468346 369.36 
L 387.154571 248.4 
L 387.997683 308.88 
L 388.840796 308.88 
L 389.683908 248.4 
L 390.527021 369.36 
L 392.213246 369.36 
L 393.056359 308.88 
L 393.899471 308.88 
L 394.742584 369.36 
L 395.585696 369.36 
L 396.428809 308.88 
L 397.271921 369.36 
L 398.115034 308.88 
L 398.958147 308.88 
L 399.801259 248.4 
L 400.644372 127.44 
L 402.330597 369.36 
L 404.016822 248.4 
L 404.859935 248.4 
L 406.54616 369.36 
L 407.389272 248.4 
L 408.232385 369.36 
L 409.075497 248.4 
L 410.761722 369.36 
L 413.29106 369.36 
L 414.134173 308.88 
L 415.820398 308.88 
L 417.506623 187.92 
L 418.349736 308.88 
L 419.192848 369.36 
L 420.035961 369.36 
L 420.879073 187.92 
L 421.722186 248.4 
L 424.251524 248.4 
L 425.094636 308.88 
L 425.937749 308.88 
L 426.780861 248.4 
L 428.467086 248.4 
L 429.310199 369.36 
L 430.153312 187.92 
L 430.996424 248.4 
L 431.839537 369.36 
L 433.525762 248.4 
L 434.368874 248.4 
L 435.211987 369.36 
L 436.055099 248.4 
L 436.898212 308.88 
L 437.741325 187.92 
L 438.584437 369.36 
L 439.42755 369.36 
L 441.113775 248.4 
L 441.956887 369.36 
L 443.643113 248.4 
L 444.486225 308.88 
L 445.329338 308.88 
L 446.17245 369.36 
L 447.858675 248.4 
L 448.701788 369.36 
L 449.544901 248.4 
L 450.388013 308.88 
L 451.231126 308.88 
L 452.074238 66.96 
L 452.917351 308.88 
L 453.760463 369.36 
L 454.603576 308.88 
L 455.446688 369.36 
L 456.289801 369.36 
L 457.976026 248.4 
L 459.662251 369.36 
L 461.348476 369.36 
L 462.191589 308.88 
L 463.034702 308.88 
L 463.877814 187.92 
L 464.720927 369.36 
L 465.564039 369.36 
L 466.407152 187.92 
L 467.250264 369.36 
L 468.093377 248.4 
L 468.93649 248.4 
L 469.779602 369.36 
L 470.622715 248.4 
L 471.465827 369.36 
L 472.30894 308.88 
L 473.152052 369.36 
L 474.838278 248.4 
L 475.68139 369.36 
L 476.524503 308.88 
L 479.05384 308.88 
L 479.896953 369.36 
L 480.740065 308.88 
L 482.426291 308.88 
L 483.269403 369.36 
L 484.112516 308.88 
L 484.955628 369.36 
L 485.798741 308.88 
L 486.641853 369.36 
L 488.328079 369.36 
L 489.171191 248.4 
L 490.857416 369.36 
L 491.700529 369.36 
L 492.543641 127.44 
L 493.386754 127.44 
L 494.229867 369.36 
L 495.072979 308.88 
L 495.916092 308.88 
L 496.759204 369.36 
L 498.445429 369.36 
L 499.288542 308.88 
L 501.81788 308.88 
L 502.660992 369.36 
L 504.347217 248.4 
L 506.033442 369.36 
L 506.876555 248.4 
L 507.719668 308.88 
L 508.56278 308.88 
L 509.405893 187.92 
L 510.249005 308.88 
L 511.092118 308.88 
L 511.93523 248.4 
L 512.778343 369.36 
L 513.621456 308.88 
L 514.464568 369.36 
L 515.307681 369.36 
L 516.150793 308.88 
L 517.837018 308.88 
L 518.680131 248.4 
L 519.523244 369.36 
L 520.366356 369.36 
L 521.209469 308.88 
L 522.052581 187.92 
L 522.895694 308.88 
L 524.581919 308.88 
L 525.425031 248.4 
L 526.268144 369.36 
L 527.954369 369.36 
L 528.797482 187.92 
L 529.640594 248.4 
L 530.483707 369.36 
L 531.326819 369.36 
L 532.169932 308.88 
L 533.013045 369.36 
L 533.856157 308.88 
L 535.542382 308.88 
L 536.385495 369.36 
L 537.228607 369.36 
L 538.07172 308.88 
L 538.914833 308.88 
L 539.757945 369.36 
L 540.601058 308.88 
L 541.44417 369.36 
L 542.287283 308.88 
L 543.130395 369.36 
L 543.973508 308.88 
L 544.81662 369.36 
L 545.659733 369.36 
L 546.502846 248.4 
L 547.345958 248.4 
L 549.032183 369.36 
L 549.875296 248.4 
L 550.718408 308.88 
L 551.561521 248.4 
L 552.404634 369.36 
L 553.247746 248.4 
L 554.933971 369.36 
L 555.777084 308.88 
L 556.620196 369.36 
L 559.992647 369.36 
L 560.835759 187.92 
L 561.678872 369.36 
L 562.521984 369.36 
L 563.365097 308.88 
L 564.20821 66.96 
L 565.051322 369.36 
L 565.894435 248.4 
L 566.737547 369.36 
L 567.58066 308.88 
L 568.423772 369.36 
L 569.266885 308.88 
L 570.109997 369.36 
L 570.95311 369.36 
L 572.639335 248.4 
L 573.482448 369.36 
L 575.168673 248.4 
L 576.011785 248.4 
L 576.854898 308.88 
L 578.541123 308.88 
L 579.384236 369.36 
L 580.227348 369.36 
L 581.070461 308.88 
L 581.913573 369.36 
L 582.756686 248.4 
L 583.599799 308.88 
L 584.442911 248.4 
L 585.286024 308.88 
L 586.129136 308.88 
L 586.972249 248.4 
L 587.815361 248.4 
L 589.501587 369.36 
L 590.344699 308.88 
L 591.187812 308.88 
L 592.030924 369.36 
L 592.874037 369.36 
L 593.717149 308.88 
L 594.560262 369.36 
L 597.932712 369.36 
L 599.618937 248.4 
L 600.46205 308.88 
L 601.305162 187.92 
L 602.148275 369.36 
L 604.677613 369.36 
L 605.520725 308.88 
L 606.363838 187.92 
L 607.20695 369.36 
L 610.579401 369.36 
L 611.422513 308.88 
L 612.265626 369.36 
L 613.108738 369.36 
L 613.951851 308.88 
L 614.794963 369.36 
L 615.638076 248.4 
L 616.481189 369.36 
L 617.324301 369.36 
L 618.167414 308.88 
L 619.010526 369.36 
L 619.853639 308.88 
L 620.696751 369.36 
L 623.226089 369.36 
L 624.069202 127.44 
L 625.755427 369.36 
L 626.598539 308.88 
L 627.441652 369.36 
L 628.284765 308.88 
L 629.127877 369.36 
L 629.97099 308.88 
L 630.814102 308.88 
L 631.657215 187.92 
L 632.500327 369.36 
L 633.34344 248.4 
L 634.186553 308.88 
L 635.029665 308.88 
L 635.872778 369.36 
L 636.71589 308.88 
L 638.402115 308.88 
L 639.245228 369.36 
L 640.08834 248.4 
L 640.931453 369.36 
L 641.774566 369.36 
L 642.617678 308.88 
L 643.460791 308.88 
L 644.303903 248.4 
L 645.147016 127.44 
L 645.990128 308.88 
L 646.833241 308.88 
L 647.676354 369.36 
L 648.519466 187.92 
L 649.362579 187.92 
L 650.205691 308.88 
L 651.048804 308.88 
L 651.891916 369.36 
L 652.735029 369.36 
L 653.578142 248.4 
L 655.264367 369.36 
L 656.107479 369.36 
L 657.793704 248.4 
L 658.636817 248.4 
L 660.323042 369.36 
L 661.166155 369.36 
L 662.009267 308.88 
L 662.85238 369.36 
L 663.695492 187.92 
L 664.538605 369.36 
L 665.381717 308.88 
L 666.22483 369.36 
L 667.911055 248.4 
L 668.754168 369.36 
L 669.59728 248.4 
L 670.440393 308.88 
L 672.126618 308.88 
L 672.969731 369.36 
L 673.812843 308.88 
L 674.655956 369.36 
L 676.342181 369.36 
L 677.185293 308.88 
L 678.028406 308.88 
L 678.871519 369.36 
L 679.714631 369.36 
L 680.557744 308.88 
L 681.400856 369.36 
L 682.243969 308.88 
L 683.087081 308.88 
L 683.930194 369.36 
L 688.145757 369.36 
L 688.988869 308.88 
L 689.831982 369.36 
L 690.675094 369.36 
L 691.518207 308.88 
L 692.36132 369.36 
L 694.047545 369.36 
L 694.890657 248.4 
L 696.576882 369.36 
L 698.263108 369.36 
L 699.10622 308.88 
L 699.949333 369.36 
L 704.164895 369.36 
L 705.008008 187.92 
L 705.851121 369.36 
L 706.694233 308.88 
L 707.537346 308.88 
L 708.380458 369.36 
L 709.223571 308.88 
L 710.909796 308.88 
L 711.752909 369.36 
L 712.596021 308.88 
L 713.439134 308.88 
L 714.282246 369.36 
L 715.968471 369.36 
L 716.811584 308.88 
L 717.654697 308.88 
L 718.497809 369.36 
L 721.870259 369.36 
L 722.713372 308.88 
L 723.556485 369.36 
L 726.928935 369.36 
L 727.772047 308.88 
L 728.61516 308.88 
L 729.458272 369.36 
L 731.144498 369.36 
L 731.98761 248.4 
L 732.830723 369.36 
L 733.673835 308.88 
L 737.046286 308.88 
L 737.889398 369.36 
L 738.732511 369.36 
L 739.575623 248.4 
L 740.418736 369.36 
L 741.261848 248.4 
L 742.104961 369.36 
L 742.948074 369.36 
L 743.791186 308.88 
L 744.634299 369.36 
L 745.477411 369.36 
L 746.320524 248.4 
L 747.163636 308.88 
L 747.163636 308.88 
" clip-path="url(#pafe1291578)" style="fill: none; stroke: #003bff; stroke-width: 1.5; stroke-linecap: round"/>
   </g>
   <g id="patch_3">
    <path d="M 108 384.48 
L 108 51.84 
" style="fill: none; stroke: #cccccc; stroke-width: 0.8; stroke-linejoin: miter; stroke-linecap: square"/>
   </g>
   <g id="patch_4">
    <path d="M 108 384.48 
L 777.6 384.48 
" style="fill: none; stroke: #cccccc; stroke-width: 0.8; stroke-linejoin: miter; stroke-linecap: square"/>
   </g>
   <g id="text_17">
    <!-- Daily Sales -->
    <g style="fill: #262626" transform="translate(400.5525 45.84) scale(0.16 -0.16)">
     <defs>
      <path id="Arial-BoldMT-44" d="M 463 4581 
L 2153 4581 
Q 2725 4581 3025 4494 
Q 3428 4375 3715 4072 
Q 4003 3769 4153 3330 
Q 4303 2891 4303 2247 
Q 4303 1681 4163 1272 
Q 3991 772 3672 463 
Q 3431 228 3022 97 
Q 2716 0 2203 0 
L 463 0 
L 463 4581 
z
M 1388 3806 
L 1388 772 
L 2078 772 
Q 2466 772 2638 816 
Q 2863 872 3011 1006 
Q 3159 1141 3253 1448 
Q 3347 1756 3347 2288 
Q 3347 2819 3253 3103 
Q 3159 3388 2990 3547 
Q 2822 3706 2563 3763 
Q 2369 3806 1803 3806 
L 1388 3806 
z
" transform="scale(0.015625)"/>
      <path id="Arial-BoldMT-6c" d="M 459 0 
L 459 4581 
L 1338 4581 
L 1338 0 
L 459 0 
z
" transform="scale(0.015625)"/>
      <path id="Arial-BoldMT-20" transform="scale(0.015625)"/>
      <path id="Arial-BoldMT-53" d="M 231 1491 
L 1131 1578 
Q 1213 1125 1461 912 
Q 1709 700 2131 700 
Q 2578 700 2804 889 
Q 3031 1078 3031 1331 
Q 3031 1494 2936 1608 
Q 2841 1722 2603 1806 
Q 2441 1863 1863 2006 
Q 1119 2191 819 2459 
Q 397 2838 397 3381 
Q 397 3731 595 4036 
Q 794 4341 1167 4500 
Q 1541 4659 2069 4659 
Q 2931 4659 3367 4281 
Q 3803 3903 3825 3272 
L 2900 3231 
Q 2841 3584 2645 3739 
Q 2450 3894 2059 3894 
Q 1656 3894 1428 3728 
Q 1281 3622 1281 3444 
Q 1281 3281 1419 3166 
Q 1594 3019 2269 2859 
Q 2944 2700 3267 2529 
Q 3591 2359 3773 2064 
Q 3956 1769 3956 1334 
Q 3956 941 3737 597 
Q 3519 253 3119 86 
Q 2719 -81 2122 -81 
Q 1253 -81 787 320 
Q 322 722 231 1491 
z
" transform="scale(0.015625)"/>
      <path id="Arial-BoldMT-65" d="M 2381 1056 
L 3256 909 
Q 3088 428 2723 176 
Q 2359 -75 1813 -75 
Q 947 -75 531 491 
Q 203 944 203 1634 
Q 203 2459 634 2926 
Q 1066 3394 1725 3394 
Q 2466 3394 2894 2905 
Q 3322 2416 3303 1406 
L 1103 1406 
Q 1113 1016 1316 798 
Q 1519 581 1822 581 
Q 2028 581 2168 693 
Q 2309 806 2381 1056 
z
M 2431 1944 
Q 2422 2325 2234 2523 
Q 2047 2722 1778 2722 
Q 1491 2722 1303 2513 
Q 1116 2303 1119 1944 
L 2431 1944 
z
" transform="scale(0.015625)"/>
      <path id="Arial-BoldMT-73" d="M 150 947 
L 1031 1081 
Q 1088 825 1259 692 
Q 1431 559 1741 559 
Q 2081 559 2253 684 
Q 2369 772 2369 919 
Q 2369 1019 2306 1084 
Q 2241 1147 2013 1200 
Q 950 1434 666 1628 
Q 272 1897 272 2375 
Q 272 2806 612 3100 
Q 953 3394 1669 3394 
Q 2350 3394 2681 3172 
Q 3013 2950 3138 2516 
L 2309 2363 
Q 2256 2556 2107 2659 
Q 1959 2763 1684 2763 
Q 1338 2763 1188 2666 
Q 1088 2597 1088 2488 
Q 1088 2394 1175 2328 
Q 1294 2241 1995 2081 
Q 2697 1922 2975 1691 
Q 3250 1456 3250 1038 
Q 3250 581 2869 253 
Q 2488 -75 1741 -75 
Q 1063 -75 667 200 
Q 272 475 150 947 
z
" transform="scale(0.015625)"/>
     </defs>
     <use xlink:href="#Arial-BoldMT-44"/>
     <use xlink:href="#Arial-BoldMT-61" x="72.216797"/>
     <use xlink:href="#Arial-BoldMT-69" x="127.832031"/>
     <use xlink:href="#Arial-BoldMT-6c" x="155.615234"/>
     <use xlink:href="#Arial-BoldMT-79" x="183.398438"/>
     <use xlink:href="#Arial-BoldMT-20" x="239.013672"/>
     <use xlink:href="#Arial-BoldMT-53" x="266.796875"/>
     <use xlink:href="#Arial-BoldMT-61" x="333.496094"/>
     <use xlink:href="#Arial-BoldMT-6c" x="389.111328"/>
     <use xlink:href="#Arial-BoldMT-65" x="416.894531"/>
     <use xlink:href="#Arial-BoldMT-73" x="472.509766"/>
    </g>
   </g>
  </g>
 </g>
 <defs>
  <clipPath id="pafe1291578">
   <rect x="108" y="51.84" width="669.6" height="332.64"/>
  </clipPath>
 </defs>
</svg>
